<?xml version="1.0" standalone="no"?>
<!DOCTYPE svg PUBLIC "-//W3C//DTD SVG 20010904//EN"
 "http://www.w3.org/TR/2001/REC-SVG-20010904/DTD/svg10.dtd">
<svg version="1.0" xmlns="http://www.w3.org/2000/svg"
 width="700.000000pt" height="700.000000pt" viewBox="0 0 700.000000 700.000000"
 preserveAspectRatio="xMidYMid meet">
<metadata>
Created by potrace 1.14, written by Peter Selinger 2001-2017
</metadata>
<g transform="translate(0.000000,700.000000) scale(0.100000,-0.100000)"
fill="#000000" stroke="none">
<path d="M2300 5310 c-25 -5 -59 -11 -76 -14 -116 -22 -249 -77 -360 -152 -46
-30 -107 -63 -137 -73 -232 -80 -405 -266 -467 -503 -26 -99 -22 -277 8 -360
42 -116 123 -213 220 -262 58 -29 117 -42 207 -45 27 -1 34 -8 59 -61 30 -63
93 -135 145 -166 17 -10 32 -23 35 -30 3 -7 -6 -56 -19 -109 -13 -53 -27 -126
-31 -163 -14 -122 -9 -304 10 -397 2 -11 7 -40 11 -65 12 -71 63 -218 106
-304 114 -229 316 -416 533 -493 62 -21 187 -28 242 -13 91 26 153 118 140
209 -8 57 -19 80 -85 168 -74 101 -125 199 -151 295 -24 89 -34 175 -20 183 5
3 29 -7 52 -23 93 -64 240 -125 385 -162 25 -6 44 -17 47 -28 2 -9 7 -68 11
-130 8 -132 7 -128 41 -287 29 -137 109 -297 182 -363 87 -77 205 -99 304 -55
96 43 171 132 268 318 35 66 65 122 66 124 2 2 31 -22 66 -54 127 -114 327
-186 502 -179 212 8 456 108 625 259 228 202 383 499 422 804 10 83 13 234 5
296 -17 135 -50 265 -101 393 -204 518 -690 878 -1290 957 -11 2 -58 8 -105
15 -47 7 -97 13 -113 15 -357 47 -419 67 -762 247 -142 75 -205 103 -326 142
-92 30 -145 43 -259 63 -49 9 -346 11 -390 3z m348 -215 c165 -27 288 -67 447
-145 104 -51 257 -143 291 -175 6 -5 29 -23 50 -40 47 -36 116 -105 165 -165
32 -38 40 -43 55 -34 35 21 31 43 -27 138 -21 37 -22 39 -4 32 34 -14 153 -45
197 -51 24 -3 72 -10 108 -15 36 -5 94 -12 130 -15 221 -19 473 -82 569 -143
111 -69 311 -253 311 -286 0 -8 -9 -20 -20 -26 -16 -9 -27 -4 -62 27 -24 21
-50 45 -58 53 -49 50 -113 98 -127 96 -9 -2 -23 -13 -31 -25 -14 -21 -9 -27
125 -162 152 -151 173 -180 156 -207 -5 -9 -15 -17 -21 -17 -7 0 -52 40 -101
88 -93 92 -120 104 -145 65 -14 -23 0 -45 87 -138 37 -40 67 -80 65 -89 -5
-24 -37 -25 -62 -2 -37 35 -83 8 -63 -36 8 -19 7 -27 -5 -40 -21 -20 -46 -11
-58 22 -5 14 -15 26 -22 26 -54 5 -99 -21 -93 -53 13 -64 -39 -79 -65 -19 -14
32 -16 33 -58 28 -43 -5 -66 -22 -55 -40 3 -4 2 -19 -1 -33 -5 -20 -12 -25
-33 -22 -20 2 -29 11 -38 38 -11 33 -14 35 -64 38 -30 2 -59 -2 -67 -9 -11 -9
-29 4 -91 68 -53 54 -96 88 -136 106 -63 29 -135 49 -141 38 -3 -3 11 -32 31
-64 39 -64 97 -217 108 -287 10 -61 31 -99 60 -110 25 -10 28 -15 45 -115 15
-89 4 -354 -20 -495 -24 -136 -43 -211 -86 -340 -78 -236 -199 -431 -274 -442
-42 -6 -70 8 -70 35 0 15 -15 35 -44 59 -50 42 -81 99 -97 178 -50 252 -49
488 1 717 19 83 45 159 85 246 14 32 25 63 23 68 -5 16 -87 -32 -134 -80 -25
-25 -58 -66 -72 -91 -32 -54 -40 -37 -23 51 14 70 37 124 95 221 110 188 145
304 141 465 -3 105 -31 201 -76 263 -35 48 -52 41 -39 -17 13 -56 9 -208 -6
-275 -18 -77 -52 -139 -110 -203 -35 -39 -44 -55 -39 -74 8 -31 -30 -86 -107
-155 -132 -120 -324 -172 -520 -142 -46 7 -67 25 -30 27 32 1 65 9 134 33 163
57 275 157 382 341 25 44 55 91 66 105 l20 25 1 -25 c0 -14 0 -42 -1 -62 -2
-50 14 -48 29 3 35 116 -15 357 -87 422 -20 19 -20 18 -21 -40 0 -135 -77
-272 -184 -329 -23 -13 -26 -18 -16 -35 19 -36 2 -67 -63 -115 -102 -75 -210
-110 -343 -113 -93 -1 -126 11 -79 30 99 41 185 85 238 124 69 49 94 75 155
158 50 69 77 74 74 14 -1 -20 0 -37 2 -37 16 0 38 87 41 165 4 93 -6 151 -33
192 l-16 24 -28 -49 c-46 -81 -150 -161 -263 -202 -27 -10 -28 -9 -22 12 3 13
9 55 12 93 5 61 3 73 -14 95 -29 35 -50 19 -72 -52 -28 -91 -81 -155 -163
-196 -129 -64 -285 -46 -444 52 -82 51 -116 63 -162 60 -44 -2 -72 -18 -96
-54 -23 -34 -37 -37 -60 -14 -30 30 6 96 68 125 80 36 141 23 272 -58 113 -70
157 -86 247 -88 92 -3 146 13 213 63 154 117 147 374 -14 519 -51 47 -67 43
-40 -9 88 -173 68 -346 -47 -394 -64 -27 -133 -18 -225 28 -46 22 -95 49 -109
58 -57 38 -133 60 -216 61 -82 2 -147 -24 -209 -83 l-40 -38 -17 23 c-64 84
-48 327 30 471 30 54 108 137 161 170 140 87 335 93 508 15 74 -33 83 -35 83
-15 0 20 -73 81 -132 110 -35 17 -44 27 -35 34 18 14 124 52 165 58 21 4 57
10 82 14 69 11 232 8 318 -5z m2491 -999 c51 -86 72 -152 78 -251 12 -191 -81
-407 -239 -555 -77 -73 -252 -180 -292 -180 -18 0 -18 2 5 28 91 100 144 241
141 373 l-2 56 52 28 c28 16 62 40 74 54 23 25 58 104 73 163 1 4 11 38 22 75
14 49 19 93 17 158 -3 132 14 145 71 51z m-391 -585 c7 -46 -67 -170 -149
-251 -41 -41 -83 -81 -92 -88 -48 -36 -226 -112 -262 -112 -14 0 -20 16 -17
50 1 8 2 61 3 117 1 56 5 107 9 113 4 6 36 12 71 14 96 4 192 40 274 101 119
89 157 102 163 56z"/>
<path d="M1948 4709 c-19 -11 -25 -64 -8 -74 6 -3 11 -1 11 4 5 38 16 51 47
51 26 1 26 1 8 15 -23 17 -34 18 -58 4z"/>
<path d="M2689 4683 c-40 -16 -79 -51 -79 -69 0 -7 8 -15 19 -19 10 -3 36 -27
59 -53 46 -55 89 -73 142 -59 69 17 89 60 60 125 -31 69 -129 105 -201 75z"/>
<path d="M1772 4668 c-7 -7 -12 -26 -12 -43 0 -23 7 -35 25 -45 52 -28 101 43
57 83 -22 20 -53 22 -70 5z"/>
<path d="M4547 4399 c-3 -13 -1 -19 6 -16 15 5 22 37 9 37 -5 0 -12 -9 -15
-21z"/>
<path d="M4544 4222 c-21 -13 -25 -49 -9 -66 21 -20 39 -20 59 0 22 21 20 40
-6 58 -25 18 -29 19 -44 8z"/>
<path d="M4368 4133 c-19 -23 -12 -50 13 -58 42 -14 68 44 30 65 -25 13 -25
13 -43 -7z"/>
<path d="M4206 4084 c-7 -19 1 -34 19 -34 21 0 28 19 15 35 -16 19 -26 19 -34
-1z"/>
<path d="M4486 3989 c-31 -44 25 -99 65 -63 23 21 24 47 3 68 -22 22 -50 20
-68 -5z"/>
<path d="M4317 3948 c-23 -13 -22 -55 3 -68 15 -8 24 -6 40 10 22 22 24 29 12
46 -11 17 -37 23 -55 12z"/>
<path d="M4147 3898 c-29 -21 -28 -38 3 -38 22 0 42 30 32 47 -5 8 -16 5 -35
-9z"/>
<path d="M3551 2367 c-18 -54 -20 -86 -8 -121 l11 -31 12 30 c14 33 17 109 5
140 -7 17 -10 14 -20 -18z"/>
</g>
</svg>
