<svg version="1.1" id="Layer_1" xmlns="http://www.w3.org/2000/svg" xmlns:xlink="http://www.w3.org/1999/xlink" x="0px" y="0px"
	 width="100%" viewBox="0 0 1024 1024" enable-background="new 0 0 1024 1024" xml:space="preserve">
<path fill="#000000" opacity="1.000000" stroke="none" 
	d="
M277.700317,516.918640 
	C279.504669,509.215698 281.124146,501.901520 283.096252,494.683655 
	C283.880371,491.813873 283.510864,490.080505 280.816071,488.504272 
	C268.309235,481.188690 259.113647,470.974091 254.280090,457.149170 
	C253.255081,454.217407 251.587387,453.002747 248.356735,453.148163 
	C209.097870,454.915436 185.610229,424.268433 181.849243,392.517273 
	C175.848190,341.855255 208.722214,293.838318 257.866150,280.493286 
	C261.562469,279.489594 264.345367,277.219574 267.261078,275.013123 
	C289.389282,258.267700 314.605225,249.598297 341.964325,246.704407 
	C393.545105,241.248520 440.447601,255.736191 484.910370,280.468994 
	C508.145477,293.393738 531.984619,304.882416 558.534424,309.147919 
	C576.429077,312.022858 594.416809,314.347229 612.395813,316.662170 
	C652.809204,321.865662 691.365845,332.616364 725.921387,354.982330 
	C768.659912,382.644775 798.639893,420.445496 815.304504,468.687286 
	C822.813049,490.423401 827.135864,512.731323 826.897705,535.738953 
	C826.560364,568.322754 818.657654,599.112061 802.692139,627.530273 
	C782.272278,663.877075 753.479736,691.362122 714.011108,706.018066 
	C676.720093,719.865479 640.462524,718.012207 606.647461,695.150208 
	C603.492737,693.017273 600.696533,690.337280 597.822693,687.810364 
	C594.968811,685.300903 592.227112,682.663940 588.832520,679.524597 
	C586.332214,684.659363 584.066223,689.401917 581.723999,694.106506 
	C574.140564,709.338928 566.467285,724.487488 553.654907,736.273132 
	C534.540283,753.856262 508.069672,752.488953 491.254547,732.708679 
	C479.984833,719.451721 474.311432,703.489868 469.654602,687.013306 
	C463.985565,666.955444 462.708221,646.401062 462.053833,625.755798 
	C461.951630,622.531250 461.151642,620.319275 457.699860,619.565857 
	C433.332642,614.247253 410.770813,604.753235 389.920959,589.671143 
	C388.464447,595.810059 390.132721,601.256897 390.861420,606.641663 
	C393.785645,628.251526 403.671448,646.718079 417.136902,663.493347 
	C422.515961,670.194641 427.216278,677.311707 428.224457,686.063293 
	C430.232758,703.495667 417.456360,717.529114 399.345459,718.344788 
	C381.017395,719.170288 364.393158,713.807983 349.233826,704.067566 
	C306.629578,676.692749 284.628784,636.353821 276.658142,587.349731 
	C272.851837,563.948486 273.191223,540.621643 277.700317,516.918640 
M223.673813,327.162170 
	C219.144165,333.048096 216.018921,339.685242 213.903641,346.727905 
	C208.972778,363.144653 205.375137,379.706268 211.359100,396.681580 
	C212.599350,400.199921 213.784668,403.875000 217.551620,406.715424 
	C218.282867,405.701965 218.791443,404.822998 219.462265,404.093170 
	C231.994125,390.458801 247.553726,386.410309 265.358948,389.812653 
	C276.566711,391.954315 286.015594,398.022125 295.561493,403.805176 
	C301.862732,407.622620 308.311249,411.132690 315.702637,412.234406 
	C331.584534,414.601624 346.351135,408.731598 348.963074,388.679138 
	C350.724304,375.157410 346.636108,363.038849 340.281067,351.420593 
	C339.399567,349.809082 337.461334,348.412506 338.790741,346.176880 
	C340.659485,345.739014 341.657410,347.044586 342.831757,347.896881 
	C352.177155,354.679901 358.429047,363.733551 362.249878,374.536926 
	C375.223694,411.220184 348.388947,442.930298 309.977875,436.475464 
	C299.320984,434.684631 290.275787,429.640869 281.441162,423.865265 
	C274.755951,419.494873 268.121368,414.973877 260.198883,412.971283 
	C248.873245,410.108429 235.427750,415.796692 231.164276,425.298828 
	C229.047989,430.015503 230.205139,433.979980 234.257584,435.954712 
	C236.163483,436.883453 237.550797,436.936401 238.654541,434.590790 
	C242.591965,426.223175 249.016220,422.698303 258.117249,423.402344 
	C264.187286,423.871887 269.244995,426.695648 274.121613,429.933655 
	C285.890503,437.747925 298.162811,443.818909 312.591583,445.502075 
	C336.429626,448.282806 358.192810,436.445496 366.142456,415.285980 
	C367.307159,412.185944 367.899170,408.875092 368.871216,405.696960 
	C369.652924,403.140991 371.230103,401.051697 374.061462,400.996307 
	C376.975708,400.939331 378.342346,403.212738 379.236694,405.674042 
	C380.100006,408.049988 380.220245,410.532013 380.326263,413.046844 
	C380.614014,419.871613 378.532257,426.405029 377.482727,434.361938 
	C398.358795,426.986725 415.506531,416.865540 423.803284,395.637604 
	C436.028290,410.844971 432.266693,447.762024 423.924408,451.948547 
	C423.245117,450.889954 423.975037,450.045563 424.407593,449.197906 
	C426.116058,445.849915 426.024078,441.840881 423.196106,440.145782 
	C419.880463,438.158417 418.504944,442.548706 416.541412,444.541901 
	C416.427338,444.657745 416.361053,444.820953 416.273804,444.962921 
	C402.528381,467.332336 382.185303,480.964783 357.741486,489.169922 
	C355.935120,489.776276 353.748444,489.723206 352.734497,491.943756 
	C354.047791,494.260773 356.506500,494.210846 358.456848,494.345490 
	C383.901062,496.102203 406.629059,489.541901 425.495850,471.774323 
	C429.680420,467.833588 429.694763,463.772461 425.479645,458.568695 
	C449.075043,446.040466 458.316895,425.461670 456.686462,399.033966 
	C472.647919,408.717682 480.439941,459.241638 468.535126,471.045166 
	C466.402863,465.020111 470.520721,458.730713 467.704590,451.572937 
	C463.862305,456.988220 460.044586,460.872986 457.655243,465.835693 
	C442.023834,498.302032 417.367004,519.113159 381.207672,525.117065 
	C379.843353,525.343567 378.114594,524.946533 377.307281,526.773743 
	C378.357056,528.679871 380.330261,528.676514 382.061279,528.920471 
	C394.841156,530.721375 407.744202,531.099609 420.346924,528.509216 
	C443.139618,523.824219 461.524261,511.913330 474.811890,492.562897 
	C476.247253,490.472595 477.824829,488.121613 476.372101,485.639282 
	C474.277252,482.059753 476.251099,480.237030 478.624573,478.074951 
	C486.757080,470.666962 493.050415,462.067871 496.314514,451.337921 
	C501.272888,435.038452 501.900726,418.630402 498.422272,402.009399 
	C498.039185,400.178864 496.935608,398.286743 499.153412,396.119415 
	C504.922974,401.455627 508.757477,407.736908 511.232452,414.836670 
	C517.994263,434.233734 517.315674,453.738068 511.704590,473.252106 
	C507.418518,488.158051 499.506012,501.311676 491.555603,514.417542 
	C486.309418,523.065735 482.460754,532.245789 480.791656,542.191040 
	C480.160553,545.951477 478.471832,549.912415 480.276123,555.006958 
	C489.081543,540.195801 498.686249,527.899292 514.527405,522.242859 
	C515.929382,524.737976 514.665588,525.885498 514.062317,527.192627 
	C511.620728,532.482849 508.806213,537.638855 506.821747,543.096069 
	C491.273224,585.854004 489.263733,629.559082 498.581085,673.854675 
	C501.072388,685.698608 505.224396,697.020325 516.783875,703.554016 
	C518.609314,704.585754 519.115051,706.392212 518.944214,708.289978 
	C518.543091,712.745850 521.100586,714.049927 524.919006,714.469849 
	C528.425232,714.855347 531.503540,713.811340 534.481873,712.227173 
	C539.983154,709.301025 543.630920,704.482727 546.834656,699.408142 
	C558.300171,681.247131 566.333130,661.502869 572.586670,641.064392 
	C581.255188,612.732727 585.631409,583.630432 586.512207,554.043335 
	C586.899170,541.044434 585.816895,528.090393 583.060547,515.328613 
	C582.668945,513.515991 582.351562,511.253082 580.319397,510.918335 
	C572.568726,509.641510 571.912659,503.530762 570.598083,497.608826 
	C567.307068,482.784241 562.989624,468.325958 555.653198,454.873413 
	C553.563171,451.041016 550.169922,447.846710 548.958130,442.171448 
	C572.474976,445.006439 587.725952,458.769806 600.688171,476.547516 
	C604.641113,470.836548 610.209900,473.121948 615.144592,472.697754 
	C619.607605,472.314087 622.532349,473.471283 622.447571,478.900787 
	C622.390259,482.571136 624.893982,484.988953 628.638428,484.447968 
	C632.336792,483.913605 634.025818,481.069794 632.913086,477.447601 
	C631.648193,473.329895 633.532715,471.413086 637.043640,470.441559 
	C640.957336,469.358582 645.198425,467.134033 648.420654,471.581940 
	C649.530090,473.113312 649.557129,475.383545 650.415466,477.152893 
	C651.653992,479.706085 653.873474,480.813660 656.637512,479.881592 
	C659.556335,478.897247 660.087341,476.612946 659.427795,473.817535 
	C657.906006,467.367737 659.054810,465.933685 667.598572,463.434174 
	C672.931030,461.874176 674.301697,462.718872 676.460022,468.714478 
	C677.484131,471.559479 679.428406,473.339264 682.568665,472.306030 
	C685.627319,471.299713 686.359558,468.799530 685.577271,465.832397 
	C685.367493,465.036804 684.952820,464.291748 684.602600,463.537231 
	C682.973083,460.027313 684.640564,458.273773 687.849426,457.182892 
	C691.453491,455.957703 693.416992,457.950684 695.312439,460.551971 
	C697.035583,462.916870 699.317444,463.540863 701.781006,461.581512 
	C704.349609,459.538666 703.721802,457.244781 701.998474,455.027588 
	C701.182922,453.978210 700.236450,453.028748 699.328552,452.053284 
	C693.879822,446.198853 688.385437,440.386261 682.985901,434.486877 
	C679.194641,430.344757 679.027466,427.573792 682.151611,424.516815 
	C685.112976,421.619141 688.464722,421.804626 692.140686,425.443298 
	C699.126770,432.358337 705.992065,439.395691 712.877014,446.412262 
	C714.988647,448.564331 717.261841,449.665161 719.844360,447.385681 
	C722.182556,445.321869 722.435913,442.707184 720.627014,440.213104 
	C718.873535,437.795380 716.862976,435.554291 714.866028,433.324615 
	C704.182251,421.395355 692.500000,410.460999 680.960022,399.385406 
	C678.150330,396.688812 676.639038,393.732422 679.609070,390.240143 
	C682.023682,387.400879 685.835999,387.505463 689.260498,390.531067 
	C693.754700,394.501740 698.192627,398.538788 702.572876,402.634918 
	C706.222229,406.047455 709.728271,409.612946 713.346375,413.059631 
	C715.713135,415.314270 718.448547,415.772186 720.975220,413.573151 
	C723.397705,411.464752 723.028442,408.822327 721.293335,406.376556 
	C720.430115,405.159790 719.413574,404.040253 718.384399,402.954376 
	C709.540039,393.623077 700.016113,385.025696 689.885681,377.125397 
	C679.027039,368.657166 667.204590,362.144165 653.798279,358.319977 
	C634.017883,352.677612 613.856445,349.520874 593.475403,347.281464 
	C572.151550,344.938477 550.647583,343.463776 530.297607,335.729340 
	C529.741516,335.518036 529.061768,335.632324 527.632263,335.546021 
	C530.196655,339.558746 532.447144,342.976837 534.588074,346.462219 
	C536.406311,349.422241 538.584412,352.241608 538.474670,356.023804 
	C538.410034,358.252045 537.520508,359.881317 535.493103,360.797852 
	C533.596130,361.655365 531.803772,361.155182 530.418457,359.799622 
	C528.880310,358.294556 527.521484,356.589355 526.202332,354.880341 
	C521.098206,348.267731 515.620300,341.990692 509.243317,336.578827 
	C479.472565,311.313721 446.132324,292.644440 408.163849,282.910706 
	C378.674225,275.350616 349.009979,273.705536 319.385193,282.419525 
	C313.710846,284.088593 308.071838,286.006653 302.321136,289.888763 
	C304.842987,291.070923 306.592987,291.918579 308.365082,292.717163 
	C315.437103,295.904053 321.644409,300.353577 327.128479,305.791382 
	C328.579834,307.230530 330.857666,309.058655 329.206573,311.243134 
	C327.626984,313.332947 325.533203,311.330261 323.857758,310.491486 
	C313.364594,305.238281 302.528625,300.943146 290.764954,299.780762 
	C263.932983,297.129456 240.999527,304.424103 223.673813,327.162170 
M737.932739,458.427094 
	C736.999634,462.143219 736.524658,466.054626 735.040833,469.536072 
	C731.621643,477.558411 729.910583,486.486572 722.912292,492.713348 
	C719.333069,495.898041 715.176025,497.867371 710.847168,499.614838 
	C707.003174,501.166656 705.483826,503.864197 706.434937,507.931152 
	C707.279236,511.541382 707.387329,515.207336 706.934509,518.862976 
	C704.831787,535.838806 698.438660,550.929016 687.148682,563.893005 
	C685.714111,565.540283 683.755615,566.953796 683.088379,569.793030 
	C689.500854,569.048218 694.430603,565.882446 699.480469,563.170410 
	C727.259033,548.252075 747.846924,526.636780 758.348389,496.691071 
	C767.549988,470.452118 765.616821,444.896454 749.718872,421.266724 
	C748.223328,419.043823 747.023926,416.226685 743.680115,415.752045 
	C740.069458,419.619415 740.850586,424.383667 741.172058,428.671844 
	C741.913635,438.562714 741.942627,448.267578 737.932739,458.427094 
M675.217712,514.673706 
	C668.517029,521.006714 661.519348,526.830078 652.253601,529.132141 
	C646.278687,530.616638 640.375793,532.390869 634.401367,533.877686 
	C631.994690,534.476624 629.530823,534.754272 627.021545,533.867249 
	C621.840515,532.035583 619.367310,533.533875 619.386414,538.967224 
	C619.424561,549.798218 618.776917,560.584106 618.076904,571.379578 
	C617.785706,575.870361 619.493164,577.352417 623.785706,576.124817 
	C655.372375,567.091980 679.347717,548.858337 693.047974,518.352905 
	C694.145386,515.909363 694.795227,513.349243 694.983398,510.648468 
	C695.265198,506.604431 693.372803,505.529419 689.787476,506.649353 
	C684.627930,508.261108 680.241516,511.313110 675.217712,514.673706 
z"/>
<path fill="#000000" opacity="1.000000" stroke="none" 
	d="
M412.326660,339.365417 
	C416.280792,341.117737 419.157135,343.633911 421.335449,346.842712 
	C424.420074,351.386475 426.688477,356.188416 423.526703,361.667816 
	C420.357269,367.160461 415.194855,369.209106 409.220673,369.044403 
	C402.469299,368.858215 397.149994,365.665253 393.412781,360.010864 
	C390.997620,356.356750 388.294739,353.246277 384.063751,351.385834 
	C380.034271,349.614014 381.813416,346.903839 383.951324,344.662598 
	C390.953888,337.321594 401.924103,335.203186 412.326660,339.365417 
z"/>
<path fill="#000000" opacity="1.000000" stroke="none" 
	d="
M264.089539,355.322815 
	C258.905212,354.439209 256.874878,351.240662 257.102966,346.746429 
	C257.295746,342.948395 259.290131,339.913635 263.279449,339.269623 
	C267.211334,338.634979 270.037323,340.755615 271.618805,344.265289 
	C273.856384,349.231018 270.695068,354.036407 264.089539,355.322815 
z"/>
<path fill="#000000" opacity="1.000000" stroke="none" 
	d="
M656.828369,438.962189 
	C660.705383,436.322632 663.976318,436.620392 666.814209,439.915436 
	C669.013428,442.468872 669.400452,445.278137 667.376221,448.084991 
	C665.138245,451.188263 662.370728,452.984070 658.492371,450.732056 
	C654.336121,448.318604 653.650513,444.228210 656.828369,438.962189 
z"/>
<path fill="#000000" opacity="1.000000" stroke="none" 
	d="
M523.113281,691.792358 
	C522.133545,694.482239 521.324829,696.796326 520.493347,699.175537 
	C515.473450,695.589600 516.013367,681.018982 521.858337,672.316040 
	C524.341370,679.025085 524.496033,685.143982 523.113281,691.792358 
z"/>
<path fill="#000000" opacity="1.000000" stroke="none" 
	d="
M673.694336,409.674500 
	C674.774109,413.371704 673.678589,416.026611 670.729553,417.624237 
	C668.372253,418.901337 665.854187,418.581909 663.742126,416.817444 
	C661.571899,415.004486 661.358948,412.521210 661.915710,409.978638 
	C662.374084,407.885590 663.739197,406.351257 665.852051,405.907074 
	C669.141663,405.215515 671.657166,406.603424 673.694336,409.674500 
z"/>
<path fill="#000000" opacity="1.000000" stroke="none" 
	d="
M640.070435,449.431671 
	C640.662598,453.019562 639.561768,455.385376 636.480652,456.590088 
	C634.285339,457.448456 632.176453,457.107452 630.494263,455.435516 
	C628.674927,453.627289 628.306213,451.357544 629.216370,448.999237 
	C629.978638,447.024323 631.463379,445.674622 633.617371,445.385010 
	C636.617004,444.981720 638.745422,446.263580 640.070435,449.431671 
z"/>
<path fill="#000000" opacity="1.000000" stroke="none" 
	d="
M645.122803,428.023376 
	C641.583557,428.762512 638.634094,428.643829 637.689331,424.803955 
	C637.020935,422.087372 637.340515,419.375000 640.194214,417.964630 
	C642.903503,416.625641 645.491882,417.268433 647.175537,419.775482 
	C649.278625,422.907043 648.543457,425.707184 645.122803,428.023376 
z"/>
<path fill="#000000" opacity="1.000000" stroke="none" 
	d="
M282.376892,343.954041 
	C281.119476,339.333954 282.374695,335.930115 286.535309,334.317230 
	C289.761169,333.066681 292.904053,333.470581 295.472687,338.035309 
	C288.116119,337.005829 284.980133,340.045288 285.944397,346.495422 
	C283.573547,346.812714 283.208069,345.362335 282.376892,343.954041 
z"/>
<path fill="#000000" opacity="1.000000" stroke="none" 
	d="
M605.718079,454.792267 
	C607.292480,453.383789 608.537842,452.106171 609.966125,450.640808 
	C613.213257,452.731720 612.670837,455.303070 610.765991,457.614471 
	C608.813416,459.983734 605.746887,460.148163 603.632751,458.395752 
	C601.113281,456.307404 603.734436,455.585724 605.718079,454.792267 
z"/>
<path fill="#000000" opacity="1.000000" stroke="none" 
	d="
M616.642090,432.203064 
	C614.117310,430.504395 614.192993,428.522614 615.370422,426.401611 
	C615.951721,425.354645 616.769897,424.440948 618.107361,424.625061 
	C619.753235,424.851654 620.934509,426.066193 621.253296,427.478394 
	C622.011597,430.838104 620.357239,432.452454 616.642090,432.203064 
z"/>
<path fill="#000000" opacity="1.000000" stroke="none" 
	d="
M667.608826,382.353180 
	C666.802368,383.369354 666.204407,384.199036 664.617493,383.790863 
	C665.253479,381.361786 665.888123,378.937775 666.672058,375.943512 
	C668.738831,378.098022 668.601868,380.028198 667.608826,382.353180 
z"/>
</svg>